<svg id="visual" viewBox="0 0 900 600" width="900" height="600" xmlns="http://www.w3.org/2000/svg" xmlns:xlink="http://www.w3.org/1999/xlink" version="1.1"><rect x="0" y="0" width="900" height="600" fill="#001220"></rect><path d="M0 413L21.5 402.7C43 392.3 86 371.7 128.8 367.7C171.7 363.7 214.3 376.3 257.2 387.2C300 398 343 407 385.8 407.7C428.7 408.3 471.3 400.7 514.2 393.7C557 386.7 600 380.3 642.8 383.8C685.7 387.3 728.3 400.7 771.2 407.2C814 413.7 857 413.3 878.5 413.2L900 413L900 601L878.5 601C857 601 814 601 771.2 601C728.3 601 685.7 601 642.8 601C600 601 557 601 514.2 601C471.3 601 428.7 601 385.8 601C343 601 300 601 257.2 601C214.3 601 171.7 601 128.8 601C86 601 43 601 21.5 601L0 601Z" fill="#fa7268"></path><path d="M0 463L21.5 457.2C43 451.3 86 439.7 128.8 441.2C171.7 442.7 214.3 457.3 257.2 459.5C300 461.7 343 451.3 385.8 448.5C428.7 445.7 471.3 450.3 514.2 446.3C557 442.3 600 429.7 642.8 422.3C685.7 415 728.3 413 771.2 411.3C814 409.7 857 408.3 878.5 407.7L900 407L900 601L878.5 601C857 601 814 601 771.2 601C728.3 601 685.7 601 642.8 601C600 601 557 601 514.2 601C471.3 601 428.7 601 385.8 601C343 601 300 601 257.2 601C214.3 601 171.7 601 128.8 601C86 601 43 601 21.5 601L0 601Z" fill="#ef5f67"></path><path d="M0 466L21.5 469C43 472 86 478 128.8 476.2C171.7 474.3 214.3 464.7 257.2 463C300 461.3 343 467.7 385.8 475.8C428.7 484 471.3 494 514.2 494.3C557 494.7 600 485.3 642.8 484.7C685.7 484 728.3 492 771.2 496C814 500 857 500 878.5 500L900 500L900 601L878.5 601C857 601 814 601 771.2 601C728.3 601 685.7 601 642.8 601C600 601 557 601 514.2 601C471.3 601 428.7 601 385.8 601C343 601 300 601 257.2 601C214.3 601 171.7 601 128.8 601C86 601 43 601 21.5 601L0 601Z" fill="#e34c67"></path><path d="M0 537L21.5 528.3C43 519.7 86 502.3 128.8 501.5C171.7 500.7 214.3 516.3 257.2 516C300 515.7 343 499.3 385.8 500.5C428.7 501.7 471.3 520.3 514.2 528.8C557 537.3 600 535.7 642.8 528.7C685.7 521.7 728.3 509.3 771.2 503.8C814 498.3 857 499.7 878.5 500.3L900 501L900 601L878.5 601C857 601 814 601 771.2 601C728.3 601 685.7 601 642.8 601C600 601 557 601 514.2 601C471.3 601 428.7 601 385.8 601C343 601 300 601 257.2 601C214.3 601 171.7 601 128.8 601C86 601 43 601 21.5 601L0 601Z" fill="#d53867"></path><path d="M0 543L21.5 542C43 541 86 539 128.8 543.8C171.7 548.7 214.3 560.3 257.2 558.3C300 556.3 343 540.7 385.8 534.8C428.7 529 471.3 533 514.2 538.2C557 543.3 600 549.7 642.8 551.8C685.7 554 728.3 552 771.2 554.8C814 557.7 857 565.3 878.5 569.2L900 573L900 601L878.5 601C857 601 814 601 771.2 601C728.3 601 685.7 601 642.8 601C600 601 557 601 514.2 601C471.3 601 428.7 601 385.8 601C343 601 300 601 257.2 601C214.3 601 171.7 601 128.8 601C86 601 43 601 21.5 601L0 601Z" fill="#c62368"></path></svg>